G04 #@! TF.GenerationSoftware,KiCad,Pcbnew,6.0*
G04 #@! TF.CreationDate,2024-12-16T04:50:00+00:00*
G04 #@! TF.ProjectId,SmartHomeController,736D617274686F6D6520636F6E74726F,3.1*
G04 #@! TF.SameCoordinates,Original*
G04 #@! TF.FileFunction,Soldermask,Bot*
G04 #@! TF.FilePolarity,Negative*
%FSLAX46Y46*%
G04 Gerber Fmt 4.6, Leading zero omitted, Abs format (unit mm)*
G04 Bottom soldermask - mostly covered for ground plane exposure*
%MOMM*%
%LPN*%
G01*
G04 APERTURE LIST*
%ADD10C,1.900000*%
%ADD11R,1.900000X1.900000*%
%ADD12R,1.600000X1.200000*%
%ADD13R,2.700000X3.200000*%
%ADD14C,1.800000*%
G04 APERTURE END LIST*
G04 Through-hole pad openings (mirrored)*
D11*
X35000000Y10000000D03*
X37000000Y10000000D03*
X39000000Y10000000D03*
X41000000Y10000000D03*
X43000000Y10000000D03*
X45000000Y10000000D03*
X35000000Y8000000D03*
X37000000Y8000000D03*
X39000000Y8000000D03*
X41000000Y8000000D03*
X43000000Y8000000D03*
X45000000Y8000000D03*
D13*
X25000000Y43000000D03*
X30000000Y43000000D03*
X35000000Y43000000D03*
X40000000Y43000000D03*
X8000000Y43000000D03*
X8000000Y40000000D03*
X8000000Y37000000D03*
X8000000Y34000000D03*
X3000000Y45000000D03*
X3000000Y40000000D03*
X65000000Y45000000D03*
X65000000Y42500000D03*
X65000000Y40000000D03*
X65000000Y37500000D03*
X65000000Y35000000D03*
X60000000Y5000000D03*
X61500000Y5000000D03*
X63000000Y5000000D03*
X64500000Y5000000D03*
X66000000Y5000000D03*
D12*
X22000000Y36000000D03*
X22000000Y34000000D03*
X22000000Y32000000D03*
X24000000Y36000000D03*
X24000000Y34000000D03*
X24000000Y32000000D03*
X27000000Y36000000D03*
X27000000Y34000000D03*
X27000000Y32000000D03*
X29000000Y36000000D03*
X29000000Y34000000D03*
X29000000Y32000000D03*
X32000000Y36000000D03*
X32000000Y34000000D03*
X32000000Y32000000D03*
X34000000Y36000000D03*
X34000000Y34000000D03*
X34000000Y32000000D03*
X37000000Y36000000D03*
X37000000Y34000000D03*
X37000000Y32000000D03*
X39000000Y36000000D03*
X39000000Y34000000D03*
X39000000Y32000000D03*
X10000000Y22000000D03*
X10000000Y24000000D03*
X12000000Y22000000D03*
X12000000Y24000000D03*
X8000000Y22000000D03*
X8000000Y24000000D03*
X6000000Y22000000D03*
X6000000Y24000000D03*
D14*
X3500000Y3500000D03*
X66500000Y3500000D03*
X3500000Y46500000D03*
X66500000Y46500000D03*
M02*
