G04 #@! TF.GenerationSoftware,KiCad,Pcbnew,6.0*
G04 #@! TF.CreationDate,2024-12-16T04:50:00+00:00*
G04 #@! TF.ProjectId,SmartHomeController,736D617274686F6D6520636F6E74726F,3.1*
G04 #@! TF.SameCoordinates,Original*
G04 #@! TF.FileFunction,Legend,Top*
G04 #@! TF.FilePolarity,Positive*
%FSLAX46Y46*%
G04 Gerber Fmt 4.6, Leading zero omitted, Abs format (unit mm)*
G04 Silkscreen layer - component outlines, labels, warnings*
%MOMM*%
%LPD*%
G01*
G04 APERTURE LIST*
%ADD10C,0.150000*%
%ADD11C,0.200000*%
G04 APERTURE END LIST*
D10*
G04 ==================== SAFETY WARNINGS ====================*
G04 HIGH VOLTAGE WARNING - Top section*
X5000000Y47000000D02*
X40000000Y47000000D01*
X40000000Y46000000D01*
X5000000Y46000000D01*
X5000000Y47000000D01*
G04 Warning text: "HIGH VOLTAGE"*
D11*
X7000000Y46500000D02*
X7500000Y46500000D01*
X8000000Y46500000D02*
X8500000Y46500000D01*
X9000000Y46500000D02*
X9500000Y46500000D01*
X10000000Y46500000D02*
X10500000Y46500000D01*
X11000000Y46500000D02*
X11500000Y46500000D01*
X12000000Y46500000D02*
X12500000Y46500000D01*
G04 Lightning bolt symbol*
D11*
X15000000Y47000000D02*
X14500000Y46500000D01*
X15000000Y46500000D01*
X14500000Y46000000D01*
G04 "230V AC" text*
X17000000Y46500000D02*
X17500000Y46500000D01*
X18000000Y46500000D02*
X18500000Y46500000D01*
X19000000Y46500000D02*
X19500000Y46500000D01*
G04 ==================== COMPONENT OUTLINES ====================*
D10*
G04 ESP32-WROOM-32 outline*
X32000000Y6000000D02*
X48000000Y6000000D01*
X48000000Y13000000D01*
X32000000Y13000000D01*
X32000000Y6000000D01*
G04 ESP32 pin 1 indicator*
X33000000Y12000000D03*
G04 "U6 ESP32" label*
D11*
X35000000Y11500000D02*
X36000000Y11500000D01*
X37000000Y11500000D02*
X38000000Y11500000D01*
X39000000Y11500000D02*
X40000000Y11500000D01*
G04 WiFi antenna indicator*
X44000000Y9000000D02*
X45000000Y9500000D01*
X46000000Y9000000D01*
G04 TRIAC outlines (TO-220)*
D10*
X23000000Y42000000D02*
X27000000Y42000000D01*
X27000000Y44000000D01*
X23000000Y44000000D01*
X23000000Y42000000D01*
X28000000Y42000000D02*
X32000000Y42000000D01*
X32000000Y44000000D01*
X28000000Y44000000D01*
X28000000Y42000000D01*
X33000000Y42000000D02*
X37000000Y42000000D01*
X37000000Y44000000D01*
X33000000Y44000000D01*
X33000000Y42000000D01*
X38000000Y42000000D02*
X42000000Y42000000D01*
X42000000Y44000000D01*
X38000000Y44000000D01*
X38000000Y42000000D01*
G04 TRIAC labels*
D11*
X24000000Y44500000D02*
X25000000Y44500000D01*
X29000000Y44500000D02*
X30000000Y44500000D01*
X34000000Y44500000D02*
X35000000Y44500000D01*
X39000000Y44500000D02*
X40000000Y44500000D01*
G04 "Q1" "Q2" "Q3" "Q4" labels*
X24500000Y44200000D02*
X24500000Y44800000D01*
X29500000Y44200000D02*
X29500000Y44800000D01*
X34500000Y44200000D02*
X34500000Y44800000D01*
X39500000Y44200000D02*
X39500000Y44800000D01*
G04 MOC3041 optocoupler outlines*
D10*
X21000000Y31000000D02*
X25000000Y31000000D01*
X25000000Y37000000D01*
X21000000Y37000000D01*
X21000000Y31000000D01*
X26000000Y31000000D02*
X30000000Y31000000D01*
X30000000Y37000000D01*
X26000000Y37000000D01*
X26000000Y31000000D01*
X31000000Y31000000D02*
X35000000Y31000000D01*
X35000000Y37000000D01*
X31000000Y37000000D01*
X31000000Y31000000D01*
X36000000Y31000000D02*
X40000000Y31000000D01*
X40000000Y37000000D01*
X36000000Y37000000D01*
X36000000Y31000000D01*
G04 MOC3041 labels "U2" "U3" "U4" "U5"*
D11*
X22000000Y37500000D02*
X23000000Y37500000D01*
X27000000Y37500000D02*
X28000000Y37500000D01*
X32000000Y37500000D02*
X33000000Y37500000D01*
X37000000Y37500000D02*
X38000000Y37500000D01*
G04 HLK-PM01 power module outline*
D10*
X5000000Y32000000D02*
X11000000Y32000000D01*
X11000000Y44000000D01*
X5000000Y44000000D01*
X5000000Y32000000D01*
G04 "HLK-PM01 5V" label*
D11*
X6000000Y43000000D02*
X7000000Y43000000D01*
X7500000Y43000000D02*
X8500000Y43000000D01*
X9000000Y43000000D02*
X10000000Y43000000D01*
G04 PC817 optocoupler outline*
D10*
X9000000Y21000000D02*
X13000000Y21000000D01*
X13000000Y25000000D01*
X9000000Y25000000D01*
X9000000Y21000000D01*
G04 "U1" label*
D11*
X10000000Y25500000D02*
X11000000Y25500000D01*
G04 Connector labels*
D11*
G04 "J1 AC IN" label*
X1000000Y45500000D02*
X2000000Y45500000D01*
X1000000Y45000000D02*
X2000000Y45000000D01*
G04 "J2 AC OUT" label*
X63000000Y47000000D02*
X64000000Y47000000D01*
X63000000Y46500000D02*
X64000000Y46500000D01*
G04 "J3 SWITCH" label*
X58000000Y6000000D02*
X59000000Y6000000D01*
X58000000Y5500000D02*
X59000000Y5500000D01*
G04 Channel output labels*
D11*
X65500000Y45000000D02*
X66000000Y45000000D01*
X65500000Y42500000D02*
X66000000Y42500000D01*
X65500000Y40000000D02*
X66000000Y40000000D01*
X65500000Y37500000D02*
X66000000Y37500000D01*
G04 "CH1" "CH2" "CH3" "CH4" text*
X67000000Y45000000D02*
X67500000Y45000000D01*
X67000000Y42500000D02*
X67500000Y42500000D01*
X67000000Y40000000D02*
X67500000Y40000000D01*
X67000000Y37500000D02*
X67500000Y37500000D01*
G04 ==================== ISOLATION BARRIER LINE ====================*
D11*
G04 Physical barrier indication line*
X1000000Y26000000D02*
X42000000Y26000000D01*
G04 "ISOLATION BARRIER" text*
X15000000Y26500000D02*
X16000000Y26500000D01*
X17000000Y26500000D02*
X18000000Y26500000D01*
X19000000Y26500000D02*
X20000000Y26500000D01*
G04 ==================== MOUNTING HOLES ====================*
D10*
X3500000Y3500000D03*
X66500000Y3500000D03*
X3500000Y46500000D03*
X66500000Y46500000D03*
G04 ==================== VERSION INFO ====================*
D11*
G04 "v3.1" bottom right*
X64000000Y2000000D02*
X65000000Y2000000D01*
X65500000Y2000000D02*
X66000000Y2000000D01*
G04 "FAIL-SAFE" text*
X56000000Y2000000D02*
X57000000Y2000000D01*
X57500000Y2000000D02*
X58500000Y2000000D01*
G04 Ground symbol*
X50000000Y2000000D02*
X50000000Y2500000D01*
X49500000Y2000000D01*
X50500000Y2000000D01*
M02*
